<?xml version="1.0" encoding="UTF-8"?>
<svg xmlns="http://www.w3.org/2000/svg" width="200" height="200">
  <g fill="none">
    <path fill="#C6BA84" d="m75.9537046 110.743445 24.8704124-56.63611 21.729595 56.63611H75.9537046Zm101.2428134 49.1163211L114.945205 11.147222H86.8787867L22.1893199 159.8597661H3.40274948v28.29493689H76.7976947V159.8121979H57.316701l10.2019021-23.7198391H131.24375l10.13028 23.7198391h-19.410571v28.34250509h74.017386V159.8597661h-18.784327Z"/>
    <path fill="#46156B" d="m84.6491414 7.747268-64.688867 148.7126039H.00023432v35.0954691H80.2000482v-35.1435172H62.2165221l7.6588946-16.9169914h59.0091203l7.589312 16.9169914h-17.912144v35.1435172h80.819694v-35.0954691h-19.924643L117.209041 7.747268H84.6491414ZM6.80128801 163.2609199H24.4188452L89.1072323 14.548376h23.5729357l62.252513 148.7125439h17.649409v21.49337303h-67.218677V163.2105325h20.913197l-12.674847-30.5162683H65.1599898L52.412681 163.2105325H73.39954v21.54376043H6.80128801V163.2609199Zm63.94331249-49.1181206h56.7548805L101.034065 45.167159l-30.2894645 68.9756403ZM100.610571 63.045711l16.994372 44.2983797H81.1598095L100.610571 63.045711Z"/>
  </g>
</svg>