<svg xmlns="http://www.w3.org/2000/svg" width="200" height="200"><g fill="none"><path fill="#C6BA84" d="m75.954 110.743 24.87-56.636 21.73 56.636zm101.243 49.117L114.945 11.147H86.88L22.189 159.86H3.403v28.295h73.395v-28.343H57.317l10.202-23.72h63.725l10.13 23.72h-19.41v28.343h74.017V159.86z"/><path fill="#46156B" d="M84.65 7.747 19.96 156.46H0v35.095h80.2v-35.143H62.217l7.658-16.917h59.01l7.589 16.917h-17.912v35.143h80.82V156.46h-19.925L117.209 7.747zM6.8 163.261h17.62L89.107 14.548h23.573l62.253 148.713h17.65v21.493h-67.22v-21.543h20.914l-12.675-30.517H65.16l-12.747 30.517H73.4v21.543H6.8zm63.944-49.118h56.754l-26.465-68.976zm29.866-51.097 16.994 44.298H81.16z"/></g></svg>