<svg xmlns="http://www.w3.org/2000/svg" width="500" height="500" viewBox="0 0 50 50"><path d="M1 0C.64 0 .305.188.125.5a1 1 0 0 0 .031 1l9.125 15.375C11.22 19.848 13.047 20 16.375 20H18.5c1.758-.96 4.105-1.746 7.188-1.937L14.03 3.406C12.437 1.356 10.7 0 7.406 0Zm25.813 20c-7.188.086-10.31 3.797-11 5-.622 1.074-.258 1.957.187 2.938.727 1.308 5.594 9.406 5.594 9.406-.73-1.254.883-4.778 1.875-6.5 1.718-2.989 5.383-4.688 10.062-4.688 1.813 0 2.813.246 3.063.344.324.184.742.148 1.062-.062.36-.239.52-.68.407-1.094-1.36-4.989-6.079-5.399-11.25-5.344m6.656 8.156c-3.918.016-6.907 1.348-8.25 3.688-1.13 1.96-1.899 4.105-1.813 4.718 0-.003-.398 1.852.157 4.157.89 1.523 1.851 3.136 2.687 4.562C27.96 48.195 31.102 50 34.438 50H49a1 1 0 0 0 .906-.562 1.01 1.01 0 0 0-.125-1.063Z"/></svg>