<?xml version="1.0" encoding="UTF-8"?>
<!-- Generated by Pixelmator Pro 3.6.17 -->
<svg width="150" height="150" viewBox="0 0 150 150" xmlns="http://www.w3.org/2000/svg">
    <path id="Path" fill="none" stroke="none" d="M 0 0 L 150 0 L 150 150 L 0 150 L 0 0 Z"/>
    <path id="path1" fill="#000000" fill-rule="evenodd" stroke="none" d="M 80.199997 55.700005 L 56.099998 57.700005 L 56.099998 99.699997 C 56.099998 112.100006 58.599998 121.199997 63.599998 126.800003 C 68.599998 132.5 77.900002 135.300003 91.300003 135.300003 L 101.699997 135.300003 L 101.699997 111.800003 L 93.599998 111.800003 C 88.199997 111.800003 84.599998 110.699997 82.900002 108.600006 C 81.099998 106.5 80.300003 102.800003 80.300003 97.5 L 80.300003 55.700005 Z"/>
    <path id="path2" fill="#000000" fill-rule="evenodd" stroke="none" d="M 80.199997 22.300003 C 80.199997 16.100006 74.400002 11 68.099998 11 C 61.900002 11 56 16.100006 56 22.300003 L 56 57.800003 L 80.099998 57.800003 L 80.099998 22.300003 Z"/>
    <path id="path3" fill="#000000" fill-rule="evenodd" stroke="none" d="M 91.5 57.700005 C 97.699997 57.700005 102.800003 51.900002 102.800003 45.599998 C 102.800003 39.400002 97.699997 33.5 91.5 33.5 L 56.099998 33.5 L 56.099998 57.599998 L 91.5 57.599998 Z"/>
</svg>
