<svg xmlns="http://www.w3.org/2000/svg" width="440" height="262"><g fill-rule="evenodd"><path fill="#d1d3d4" d="M116.09 58.343h323.28v27.738H116.09zm0-58.343h323.28v29.651H116.09zM.363 115.73H439.37v28.69H.363zm0 57.39H439.37v28.69H.363zm0 57.38H439.37v28.7H.363zM.363 0h87.033v86.081H.363z"/><path fill="#002d45" d="m51.061 309.09 5.563-.084s.165 5.563-.083 5.563h-5.479v-5.48h-.001ZM.333 294.56h19.01l-.081 1.992h-2.824s-2.823 0-2.823 1.992v23.912s-.249 7.553 9.216 7.471c0 0 9.629 1.328 9.962-8.389V298.71s-.155-1.406-1.494-2.08c-.498-.248-3.817-.16-3.817-.16l.063-1.93 19.446.02-.166 1.66-3.322.25s-2.12.391-2.242 2.158c-.12 1.762.168 23.246.168 23.246s-.747 4.645-4.568 6.891-4.068 3.236-14.281 3.154c0 0-5.56.244-12.369-2.408 0 0-4.402-1.992-5.064-6.059l-.166-24.41s.083-2.24-1.245-2.24L0 296.652l.166-2.152.167.07Zm359.71 0 18.991.123.045 1.748h-2.972s-3.425.557-1.804 2.924l8.718 14.508 10.024-14.947s1.533-2.279-.459-2.217c-1.994.064-4.773-.146-4.773-.146l-.063-1.869h15.258l-.124 1.742s-4.297-.313-5.669 1.621l-11.519 17.93v11.646s.313 1.371 2.116 1.436l3.362-.064.063 1.865h-19.88v-1.865h2.801s1.682-.063 1.994-1.992l.061-11.146-11.145-16.939s-.874-2.178-2.554-2.363l-2.49-.063v-1.94Zm-109.97 0 17.061.186-.068 2.223-2.236-.045s-1.992-.248-1.619 1.061l7.848 25.033 9.65-27.461 5.48-.063 9.775 27.334 8.281-22.852s1.434-3.053-.932-3.111l-4.287-.166-.195-2.08h14.196l.062 2.057s-3.675-.684-4.856 2.055L296.9 330.924l-6.602.121-9.277-26.895-9.092 26.895-6.662-.121-10.586-30.82s-.498-3.053-2.74-3.301l-1.992-.186.13-2.05Zm-34.5 2.93h7.349s5.354.811 5.667 6.85c0 0-.313 6.66-5.355 7.471h-7.66v-14.32h-.01Zm-14.19-2.87 23.352-.059s13.2.436 12.951 9.463c0 0-.559 7.471-8.094 9.215 0 0 8.157 9.34 15.193 14.135 0 0 2.925 1.621 6.04 1.686l.124 1.68-8.903.371s-5.542.313-10.774-5.107l-10.71-11.207-4.981-.121-.062 12.699s-.062 1.559 1.681 1.686l3.052-.064.062 1.992-18.805-.063-.063-1.93h2.74s1.681-.313 1.807-2.367c0 0 .016-26.777-.064-27.945-.178-2.705-4.41-1.801-4.41-1.801l-.14-2.28Zm-32.46-.17 19.718.02-.148 2.051h-2.196s-3.22-.215-3.283 1.84v28.516s.436 2.057 2.616 2.184h3.114l.077 2.035-20.067-.049v-1.986l3.612-.064s2.056-.375 2.118-3.178l-.062-26.211s-.062-2.555-2.118-2.74l-3.291-.346-.09-2.07Zm159.64 20.89 10.672-.074-5.271-13.77-5.4 13.84Zm-14.37 15.45 14.996-.043v-1.895l-3.719.039s-2.637.141-1.316-3.375l3.365-7.9h13.034l4.241 8.932s.441 2.051-1.463 2.344l-3.426-.039-.088 1.938 18.008-.043.003-1.855-2.197-.152s-1.465-.146-2.78-3.223l-13.033-30.893h-6.738l-13.469 31.924s-1.467 2.344-2.93 2.344h-2.488v1.89h.01Zm-182.56-15.45 10.581-.074-5.27-13.77-5.31 13.84Zm-14.45 15.45 14.999-.043v-1.895l-3.723.039s-2.636.141-1.318-3.375l3.368-7.9h13.032l4.246 8.932s.438 2.051-1.465 2.344l-3.367.141-.148 1.758 18.099-.043-.087-1.855-2.197-.152s-1.466-.146-2.783-3.223l-13.031-30.893h-6.735l-13.472 31.924s-1.465 2.344-2.928 2.344h-2.489v1.89h.01Zm290.48-11.28h2.632s3.223 10.834 14.354 10.107c0 0 7.025-1.178 6.146-7.031 0 0 .299-3.369-5.268-5.273 0 0-14.063-4.391-16.844-10.25 0 0-2.686-8.203 7.617-12.002 0 0 9.077-3.662 19.912 1.314l.293 8.49h-2.195s-1.904-8.926-10.102-8.633c0 0-8.35.582-7.471 6.441 0 0-.291 4.096 10.544 6.879 0 0 12.446 3.662 12.007 11.861 0 0 1.313 9.516-16.105 10.688 0 0-9.231-.293-14.5-3.369l-1.02-9.23Zm-344.22 0h2.634s3.22 10.834 14.35 10.107c0 0 7.03-1.178 6.151-7.031 0 0 .293-3.369-5.272-5.273 0 0-14.059-4.391-16.84-10.25 0 0-1.466-8.633 7.615-12.002 0 0 9.079-3.662 19.915 1.314l.291 8.49h-2.196s-1.903-8.926-10.103-8.633c0 0-8.346.582-7.468 6.441 0 0-.291 4.096 10.543 6.879 0 0 12.445 3.662 12.007 11.861 0 0 1.315 9.516-16.107 10.688 0 0-9.228-.293-14.497-3.369l-1.023-9.23Z"/></g></svg>