<svg xmlns="http://www.w3.org/2000/svg" width="445" height="262"><g fill-rule="evenodd"><path fill="#d1d3d4" d="M117.874 59.028h327.075v28.064H117.874Zm0-59.028h327.075v30H117.874ZM.788 117.089H444.95v29.027H.79Zm0 58.063H444.95v29.027H.79Zm0 58.054H444.95v29.037H.79ZM.788 0h88.055v87.092H.788Z"/><path fill="#002d45" d="m52.081 312.719 5.629-.085s.167 5.628-.084 5.628h-5.544v-5.544Zm-51.323-14.7H19.99l-.082 2.015h-2.857s-2.856 0-2.856 2.015v24.193s-.252 7.641 9.324 7.558c0 0 9.742 1.344 10.079-8.487v-23.096s-.157-1.423-1.512-2.104c-.504-.251-3.862-.162-3.862-.162l.064-1.953 19.675.02-.168 1.68-3.361.253s-2.145.395-2.269 2.183c-.121 1.783.17 23.519.17 23.519s-.756 4.7-4.621 6.972-4.116 3.274-14.45 3.19c0 0-5.624.248-12.513-2.435 0 0-4.454-2.016-5.124-6.13l-.168-24.697s.084-2.266-1.26-2.266l-3.78-.152.169-2.177.169.07Zm363.933 0 19.214.124.045 1.768h-3.007s-3.465.564-1.825 2.959l8.82 14.678 10.142-15.123s1.551-2.305-.464-2.243c-2.017.065-4.83-.147-4.83-.147l-.063-1.891h15.437l-.125 1.762s-4.348-.317-5.736 1.64l-11.654 18.14v11.783s.317 1.388 2.14 1.453l3.402-.064.064 1.886h-20.113v-1.886h2.834s1.701-.064 2.017-2.016l.062-11.277-11.276-17.138s-.884-2.203-2.584-2.39l-2.52-.064v-1.963Zm-111.261 0 17.261.187-.069 2.25-2.262-.046s-2.015-.25-1.638 1.073l7.94 25.327 9.763-27.783 5.545-.064 9.89 27.655 8.378-23.12s1.45-3.089-.943-3.148l-4.338-.168-.197-2.104h14.363l.063 2.081s-3.719-.692-4.913 2.08l-11.466 32.57-6.68.123-9.386-27.211-9.199 27.21-6.74-.122-10.71-31.182s-.504-3.089-2.772-3.34l-2.016-.188.132-2.074Zm-34.905 2.964h7.435s5.417.82 5.734 6.93c0 0-.317 6.738-5.418 7.559h-7.75zh-.01Zm-14.357-2.904 23.626-.06s13.355.441 13.103 9.574c0 0-.565 7.56-8.189 9.324 0 0 8.253 9.45 15.372 14.3 0 0 2.959 1.64 6.11 1.706l.126 1.7-9.007.375s-5.608.317-10.901-5.167l-10.836-11.338-5.04-.123-.062 12.849s-.063 1.577 1.7 1.705l3.089-.064.062 2.015-19.025-.064-.064-1.952h2.772s1.7-.317 1.828-2.395c0 0 .016-27.092-.064-28.273-.18-2.737-4.462-1.822-4.462-1.822l-.142-2.307Zm-32.841-.172 19.95.02-.15 2.075h-2.222s-3.258-.217-3.322 1.862v28.85s.442 2.082 2.647 2.21h3.15l.079 2.06-20.303-.05v-2.01l3.654-.064s2.08-.38 2.143-3.216l-.062-26.518s-.063-2.585-2.143-2.773l-3.33-.35-.091-2.094Zm161.514 21.135 10.798-.075-5.333-13.931-5.464 14.002Zm-14.538 15.632 15.172-.044v-1.917l-3.763.04s-2.668.142-1.332-3.415l3.405-7.993h13.187l4.29 9.037s.447 2.075-1.48 2.371l-3.466-.04-.089 1.962 18.22-.044.003-1.877-2.223-.153s-1.482-.148-2.813-3.261l-13.186-31.256h-6.817l-13.627 32.299s-1.484 2.371-2.964 2.371h-2.517v1.913h.01Zm-184.704-15.632 10.705-.075-5.331-13.931-5.373 14.002Zm-14.62 15.632 15.176-.044v-1.917l-3.767.04s-2.667.142-1.333-3.415l3.407-7.993h13.185l4.296 9.037s.443 2.075-1.482 2.371l-3.407.143-.15 1.779 18.312-.044-.088-1.877-2.223-.153s-1.483-.148-2.816-3.261l-13.184-31.256h-6.814l-13.63 32.299s-1.482 2.371-2.962 2.371h-2.518v1.913h.01Zm293.89-11.413h2.664s3.26 10.961 14.522 10.226c0 0 7.108-1.192 6.219-7.114 0 0 .302-3.408-5.33-5.335 0 0-14.228-4.442-17.042-10.37 0 0-2.718-8.3 7.706-12.143 0 0 9.184-3.705 20.146 1.33l.297 8.59h-2.221s-1.927-9.032-10.22-8.735c0 0-8.449.589-7.56 6.517 0 0-.294 4.144 10.668 6.96 0 0 12.592 3.704 12.148 12 0 0 1.329 9.627-16.294 10.813 0 0-9.34-.296-14.67-3.409l-1.032-9.338Zm-348.26 0h2.665s3.257 10.961 14.518 10.226c0 0 7.113-1.192 6.223-7.114 0 0 .297-3.408-5.334-5.335 0 0-14.224-4.442-17.037-10.37 0 0-1.484-8.734 7.704-12.143 0 0 9.186-3.705 20.149 1.33l.294 8.59H91.57s-1.926-9.032-10.222-8.735c0 0-8.444.589-7.556 6.517 0 0-.294 4.144 10.667 6.96 0 0 12.591 3.704 12.148 12 0 0 1.33 9.627-16.296 10.813 0 0-9.336-.296-14.667-3.409l-1.035-9.338Z"/></g></svg>