<?xml version="1.0" encoding="UTF-8"?>
<!-- Generated by Pixelmator Pro 3.6.17 -->
<svg width="440" height="262" viewBox="0 0 440 262" xmlns="http://www.w3.org/2000/svg">
    <g id="Group">
        <path id="Path" fill="#d1d3d4" fill-rule="evenodd" stroke="none" d="M 116.089996 58.342987 L 439.369995 58.342987 L 439.369995 86.080994 L 116.089996 86.080994 L 116.089996 58.342987 Z"/>
        <path id="path1" fill="#d1d3d4" fill-rule="evenodd" stroke="none" d="M 116.089996 0 L 439.369995 0 L 439.369995 29.651001 L 116.089996 29.651001 L 116.089996 0 Z"/>
        <path id="path2" fill="#d1d3d4" fill-rule="evenodd" stroke="none" d="M 0.363 115.730011 L 439.369995 115.730011 L 439.369995 144.419998 L 0.363 144.419998 L 0.363 115.730011 Z"/>
        <path id="path3" fill="#d1d3d4" fill-rule="evenodd" stroke="none" d="M 0.363 173.119995 L 439.369995 173.119995 L 439.369995 201.809998 L 0.363 201.809998 L 0.363 173.119995 Z"/>
        <path id="path4" fill="#d1d3d4" fill-rule="evenodd" stroke="none" d="M 0.363 230.5 L 439.369995 230.5 L 439.369995 259.200012 L 0.363 259.200012 L 0.363 230.5 Z"/>
        <path id="path5" fill="#d1d3d4" fill-rule="evenodd" stroke="none" d="M 0.363 0 L 87.396004 0 L 87.396004 86.080994 L 0.363 86.080994 L 0.363 0 Z"/>
        <path id="path6" fill="#002d45" fill-rule="evenodd" stroke="none" d="M 51.061001 309.089996 L 56.624001 309.006012 C 56.624001 309.006012 56.789001 314.569 56.541 314.569 L 51.062 314.569 L 51.062 309.088989 L 51.061001 309.088989 Z M 0.333 294.559998 L 19.343 294.559998 L 19.261999 296.552002 L 16.438 296.552002 C 16.438 296.552002 13.615 296.552002 13.615 298.544006 L 13.615 322.455994 C 13.615 322.455994 13.366 330.009003 22.830999 329.927002 C 22.830999 329.927002 32.459999 331.255005 32.792999 321.537994 L 32.792999 298.709991 C 32.792999 298.709991 32.638 297.303986 31.299 296.630005 C 30.801001 296.381989 27.482 296.470001 27.482 296.470001 L 27.545 294.540009 L 46.991001 294.559998 L 46.825001 296.220001 L 43.502998 296.470001 C 43.502998 296.470001 41.382999 296.860992 41.261002 298.627991 C 41.140999 300.390015 41.429001 321.873993 41.429001 321.873993 C 41.429001 321.873993 40.681999 326.519012 36.861 328.765015 C 33.040001 331.010986 32.792999 332.001007 22.58 331.919006 C 22.58 331.919006 17.02 332.162994 10.211 329.510986 C 10.211 329.510986 5.809 327.519012 5.147 323.451996 L 4.981 299.041992 C 4.981 299.041992 5.064 296.802002 3.736 296.802002 L 0 296.652008 L 0.166 294.5 L 0.333 294.570007 Z M 360.042999 294.559998 L 379.033997 294.683014 L 379.07901 296.431 L 376.106995 296.431 C 376.106995 296.431 372.682007 296.988007 374.303009 299.355011 L 383.020996 313.863007 L 393.045013 298.915985 C 393.045013 298.915985 394.578003 296.636993 392.585999 296.699005 C 390.59201 296.763 387.812988 296.553009 387.812988 296.553009 L 387.75 294.68399 L 403.007996 294.68399 L 402.884003 296.425995 C 402.884003 296.425995 398.587006 296.113007 397.214996 298.046997 L 385.696014 315.97699 L 385.696014 327.622986 C 385.696014 327.622986 386.009003 328.993988 387.812012 329.05899 L 391.174011 328.994995 L 391.237 330.859985 L 371.356995 330.859985 L 371.356995 328.994995 L 374.15799 328.994995 C 374.15799 328.994995 375.839996 328.932007 376.152008 327.002991 L 376.213013 315.856995 L 365.067993 298.917999 C 365.067993 298.917999 364.194 296.73999 362.514008 296.554993 L 360.023987 296.492004 L 360.023987 294.552002 Z M 250.072998 294.559998 L 267.134003 294.746002 L 267.06601 296.968994 L 264.829987 296.924011 C 264.829987 296.924011 262.838013 296.675995 263.210999 297.984985 L 271.05899 323.018005 L 280.709015 295.557007 L 286.188995 295.493988 L 295.963989 322.828003 L 304.244995 299.976013 C 304.244995 299.976013 305.678986 296.923004 303.312988 296.86499 L 299.026001 296.699005 L 298.830994 294.618988 L 313.027008 294.618988 L 313.088989 296.675995 C 313.088989 296.675995 309.414001 295.992004 308.233002 298.730988 L 296.899994 330.924011 L 290.298004 331.045013 L 281.020996 304.149994 L 271.928986 331.045013 L 265.266998 330.924011 L 254.681 300.104004 C 254.681 300.104004 254.182999 297.050995 251.940994 296.803009 L 249.949005 296.617004 L 250.078995 294.566986 Z M 215.572998 297.48999 L 222.921997 297.48999 C 222.921997 297.48999 228.276001 298.300995 228.589005 304.339996 C 228.589005 304.339996 228.276001 311 223.233994 311.811005 L 215.574005 311.811005 L 215.574005 297.490997 L 215.563995 297.490997 Z M 201.382996 294.619995 L 224.735001 294.561005 C 224.735001 294.561005 237.934998 294.997009 237.686005 304.023987 C 237.686005 304.023987 237.126999 311.494995 229.591995 313.239014 C 229.591995 313.239014 237.748993 322.57901 244.785004 327.373993 C 244.785004 327.373993 247.710007 328.994995 250.824997 329.059998 L 250.949005 330.73999 L 242.046005 331.110992 C 242.046005 331.110992 236.503998 331.424011 231.272003 326.003998 L 220.561996 314.796997 L 215.580994 314.675995 L 215.518997 327.375 C 215.518997 327.375 215.457001 328.93399 217.199997 329.061005 L 220.251999 328.997009 L 220.313995 330.989014 L 201.509003 330.925995 L 201.445999 328.996002 L 204.186005 328.996002 C 204.186005 328.996002 205.867004 328.683014 205.992996 326.628998 C 205.992996 326.628998 206.009003 299.85199 205.929001 298.68399 C 205.751007 295.979004 201.518997 296.882996 201.518997 296.882996 L 201.378998 294.602997 Z M 168.923004 294.450012 C 169.363998 294.450012 188.641006 294.470001 188.641006 294.470001 L 188.492996 296.520996 L 186.296997 296.520996 C 186.296997 296.520996 183.076996 296.306 183.014008 298.360992 L 183.014008 326.877014 C 183.014008 326.877014 183.449997 328.93399 185.630005 329.061005 L 188.744003 329.061005 L 188.820999 331.096008 L 168.753998 331.046997 L 168.753998 329.061005 L 172.365997 328.997009 C 172.365997 328.997009 174.421997 328.622009 174.483994 325.819 L 174.421997 299.608002 C 174.421997 299.608002 174.360001 297.053009 172.304001 296.868011 L 169.013 296.522003 L 168.923004 294.451996 Z M 328.562988 315.339996 L 339.234985 315.265991 L 333.963989 301.496002 L 328.563995 315.335999 Z M 314.192993 330.790009 L 329.188995 330.747009 L 329.188995 328.85199 L 325.470001 328.890991 C 325.470001 328.890991 322.833008 329.032013 324.153992 325.515991 L 327.519012 317.615997 L 340.553009 317.615997 L 344.794006 326.548004 C 344.794006 326.548004 345.234985 328.598999 343.330994 328.891998 L 339.904999 328.852997 L 339.816986 330.790985 L 357.825012 330.747986 L 357.828003 328.893005 L 355.631012 328.740997 C 355.631012 328.740997 354.165985 328.595001 352.851013 325.518005 L 339.817993 294.625 L 333.079987 294.625 L 319.610992 326.549011 C 319.610992 326.549011 318.144012 328.893005 316.681 328.893005 L 314.192993 328.893005 L 314.192993 330.78299 L 314.203003 330.78299 Z M 131.632996 315.339996 L 142.214005 315.265991 L 136.944 301.496002 L 131.634003 315.335999 Z M 117.182999 330.790009 L 132.182007 330.747009 L 132.182007 328.85199 L 128.459 328.890991 C 128.459 328.890991 125.822998 329.032013 127.140999 325.515991 L 130.509003 317.615997 L 143.541 317.615997 L 147.787003 326.548004 C 147.787003 326.548004 148.225006 328.598999 146.322006 328.891998 L 142.955002 329.03299 L 142.807007 330.790985 L 160.906006 330.747986 L 160.819 328.893005 L 158.621994 328.740997 C 158.621994 328.740997 157.156006 328.595001 155.839005 325.518005 L 142.807999 294.625 L 136.072998 294.625 L 122.600998 326.549011 C 122.600998 326.549011 121.136002 328.893005 119.672997 328.893005 L 117.183998 328.893005 L 117.183998 330.78299 L 117.194 330.78299 Z M 407.662994 319.51001 L 410.295013 319.51001 C 410.295013 319.51001 413.518005 330.343994 424.648987 329.617004 C 424.648987 329.617004 431.674011 328.438995 430.795013 322.585999 C 430.795013 322.585999 431.093994 319.21701 425.527008 317.312988 C 425.527008 317.312988 411.463989 312.921997 408.683014 307.062988 C 408.683014 307.062988 405.997009 298.859985 416.299988 295.061005 C 416.299988 295.061005 425.377014 291.398987 436.212006 296.375 L 436.505005 304.86499 L 434.309998 304.86499 C 434.309998 304.86499 432.406006 295.938995 424.208008 296.231995 C 424.208008 296.231995 415.858002 296.813995 416.737 302.673004 C 416.737 302.673004 416.446014 306.769012 427.281006 309.552002 C 427.281006 309.552002 439.72699 313.213989 439.287994 321.412994 C 439.287994 321.412994 440.601013 330.928986 423.183014 332.101013 C 423.183014 332.101013 413.951996 331.808014 408.683014 328.731995 L 407.662994 319.502014 Z M 63.443001 319.51001 L 66.077003 319.51001 C 66.077003 319.51001 69.296997 330.343994 80.427002 329.617004 C 80.427002 329.617004 87.457001 328.438995 86.578003 322.585999 C 86.578003 322.585999 86.871002 319.21701 81.306 317.312988 C 81.306 317.312988 67.247002 312.921997 64.466003 307.062988 C 64.466003 307.062988 63 298.429993 72.081001 295.061005 C 72.081001 295.061005 81.160004 291.398987 91.996002 296.375 L 92.287003 304.86499 L 90.091003 304.86499 C 90.091003 304.86499 88.188004 295.938995 79.987999 296.231995 C 79.987999 296.231995 71.641998 296.813995 72.519997 302.673004 C 72.519997 302.673004 72.228996 306.769012 83.063004 309.552002 C 83.063004 309.552002 95.508003 313.213989 95.07 321.412994 C 95.07 321.412994 96.385002 330.928986 78.962997 332.101013 C 78.962997 332.101013 69.735001 331.808014 64.466003 328.731995 L 63.443001 319.502014 Z"/>
    </g>
</svg>
